<?xml version="1.0" encoding="UTF-8"?>
<svg id="Layer_2" xmlns="http://www.w3.org/2000/svg" viewBox="0 0 171.42 109.61">
  <g id="Layer_2-2" data-name="Layer_2">
    <path d="M112.72,59.21l5.9-16.71.24-1.03c-31.5-15.15,4.04-65.35,29.72-27.84,9.84,10.39,28.91,11.12,20.94,17.58-3.17,2.57-18.05,1.75-22.92,1.32l-.54-.07-.35.41-7.41,8.52.21.52c3,12.18,10.58,20.22,13.58,27.3,7.41,17.52-3.87,34.6-21.24,39.69-.45.13-.89.27-1.34.37l-.29.25c-.51,0-1.02,0-1.52,0h-.55c-4.2.48-80.44-.85-84.62-1.52h-.51c-.34.01-.68.02-1.01.03l.02-.2c-.64-.13-1.25-.31-1.88-.5-13.31-3.94-34.94-20.24-39.15-34.51,39.76.35,67.43-28.99,112.72-13.61Z"/>
  </g>
</svg>