<?xml version="1.0" encoding="UTF-8"?>
<svg id="Layer_2" xmlns="http://www.w3.org/2000/svg" viewBox="0 0 227.25 389.99">
  <defs>
    <style>
      .cls-1 {
        fill: #30a5a5;
      }
    </style>
  </defs>
  <g id="Layer_1-2" data-name="Layer_1">
    <path class="cls-1" d="M95.67,80.67c-8.67-7.38-17.34-14.77-26.49-22.56,3.87-1.42,8.15-2.99,12.42-4.56.02-.47.05-.93.07-1.4-8.82.4-17.64.81-27.44,1.26,2.04-4.66,3.97-9.05,5.9-13.44-.33-.19-.79-.64-.97-.55-8.55,4.6-17.57,3.05-26.65,2.53-4.64-.27-9.37,1.22-15.2,2.08,1.8-3.05,3.12-5.93,5-8.37,15.37-19.98,41.28-22.59,59.73-5.03,8.1,7.71,14.15,17.58,20.18,25.26,1.95-6.72,3.68-15.87,7.2-24.26C119.88,6.71,142.89-4.9,167.09,1.93c3.94,1.11,7.63,3.1,10.68,4.36-8.2,5.48-16.21,11.08-24.52,16.2-1.84,1.14-4.72.61-7.12.81-2.45.21-4.9.38-8.23.63,3.45,4.32,6.34,7.94,9.63,12.06-9.79,2.64-18.99,5.12-28.19,7.6l.34,1.59h17.5c-10.07,10.45-17.35,21.06-21.6,33.59,11.01-12.33,23.27-22.86,38.92-28.67,18.26-6.78,36.13-7.6,51.78,6.14,15.19,13.33,21.54,30.62,20.95,52.02-3.61-3.45-6.32-6.17-9.18-8.73-2.64-2.36-5.22-4.92-8.23-6.73-8.47-5.09-17.13-9.59-19.04-20.95-.48-2.88-4.14-5.22-7.27-8.91,2.3,9.33,4.17,16.95,6.05,24.58-.68.35-1.36.71-2.04,1.06-10.19-7.94-20.37-15.87-30.56-23.81-.42.37-.85.74-1.27,1.11,1.45,5.29,2.9,10.57,4.57,16.66-13.4-2.19-25.84-1.58-39.38,3.72,30.82,2.37,53.07,14.98,62.26,44.15,7.26,23.03,1.65,43.93-15.33,63.7-.36-5.13-.57-8.68-.87-12.23-.12-1.45-.37-2.9-.65-4.33-2.96-14.96-12.1-28.95-5.35-45.42-.69.02-1.37.04-2.06.06-2.09,4.4-4.19,8.79-6.3,13.24-11.97-9.74-5.77-21.19-2.62-32.33-.56-.25-1.11-.49-1.67-.74-3.81,4.2-7.63,8.41-11.9,13.11-2.16-9.52-2.28-18.92-11.53-24.35,1.74,4.68,3.35,9,5.16,13.86-6.25-1.51-11.54-2.79-18.26-4.42,1.77,6.43,3.02,11.58,4.61,16.62,12.41,39.32,25.58,78.42,37.14,117.99,10.67,36.53,17.42,73.9,15.92,112.24-.42,10.79-1.96,21.53-3.01,32.54h-42.19c.6-1.74.95-3.26,1.61-4.63,8.35-17.22,11.54-35.59,12.24-54.51,1.81-49.03-7.04-96.74-17.85-144.22-5.54-24.32-10.72-48.73-16.26-74.02-4.37,2.59-9.1,5.38-14.83,8.78.34-4.93.65-9.43,1.01-14.53-8.48,7.97-7.55,17.78-6.85,27.52-5.45-2.69-10.53-5.2-15.61-7.71-.47.35-.94.71-1.42,1.06,8.19,9.43,14.08,19.25,5.38,31.48-2.91-3.65-6.07-7.62-9.22-11.58l-1.58.3c7.55,14.05,5.48,28.49,3.59,43.09-.76,5.84.57,11.95,1.01,18.91-17.94-12.82-27.43-29.51-27.24-50.68.31-34.72,21.76-54.18,50.68-68.69-4.99.95-10.11,1.49-14.94,2.97-4.89,1.5-9.49,3.94-14.36,6.02v-18.75c-8.7,12.05-16.59,22.99-24.49,33.92l-1.55-.37v-23.68c-5.28,4.95-6.01,11.07-6.99,17.31-.49,3.16-2.04,6.44-3.95,9.05-6.22,8.49-12.84,16.7-19.1,24.77-7.47-16.82-3.02-46.07,13.54-60.19,25.73-21.94,51.84-15.95,77.63.76.33-.57.67-1.14,1-1.71Z"/>
  </g>
</svg>